<svg xmlns="http://www.w3.org/2000/svg" viewBox="0 0 195.33 195.33"><title>chiudi</title><g id="Layer_2" data-name="Layer 2"><g id="Layer_1-2" data-name="Layer 1"><path d="M97.66,0a97.66,97.66,0,1,0,97.66,97.66A97.77,97.77,0,0,0,97.66,0Zm0,175.33a77.66,77.66,0,1,1,77.66-77.66A77.75,77.75,0,0,1,97.66,175.33Z"/><path d="M142.68,52.65a10,10,0,0,0-14.14,0L97.66,83.52,66.79,52.65A10,10,0,0,0,52.65,66.79L83.52,97.66,52.65,128.53a10,10,0,0,0,14.14,14.14l30.87-30.87,30.87,30.87a10,10,0,0,0,14.14-14.14L111.81,97.66l30.87-30.87A10,10,0,0,0,142.68,52.65Z"/></g></g></svg>