<svg
	xmlns="http://www.w3.org/2000/svg" viewBox="0 0 209.95 194.77">
	<title>eventi</title>
	<g id="Layer_2" data-name="Layer 2">
		<g id="Layer_1-2" data-name="Layer 1">
			<path d="M180.23,30.18H165.09V10.12a10.12,10.12,0,1,0-20.23,0V30.18H65.09V10.12a10.12,10.12,0,1,0-20.23,0V30.18H29.72A29.76,29.76,0,0,0,0,59.9V165a29.76,29.76,0,0,0,29.72,29.72h150.5A29.76,29.76,0,0,0,210,165V59.9A29.76,29.76,0,0,0,180.23,30.18ZM29.72,50.8H44.86v5.86a10.12,10.12,0,0,0,20.23,0V50.8h79.77v5.86a10.12,10.12,0,1,0,20.23,0V50.8h15.14a9.12,9.12,0,0,1,9.11,9.11v23H20.62v-23A9.12,9.12,0,0,1,29.72,50.8Zm150.5,123.36H29.72A9.12,9.12,0,0,1,20.62,165V103.53H189.33V165A9.12,9.12,0,0,1,180.23,174.16Z"/>
			<rect x="49.14" y="128.55" width="20.43" height="20.43" rx="5.25" ry="5.25"/>
			<rect x="92.05" y="128.55" width="20.43" height="20.43" rx="5.25" ry="5.25"/>
		</g>
	</g>
</svg>