<svg xmlns="http://www.w3.org/2000/svg" viewBox="0 0 407.98 375.6"><title>favourites-off</title><g id="Livello_2" data-name="Livello 2"><g id="Livello_1-2" data-name="Livello 1"><g id="Layer_2" data-name="Layer 2"><g id="Layer_1-2" data-name="Layer 1-2"><path d="M295.79,22c3.39,0,6.88.17,10.34.5,19.9,1.95,37.13,9.65,51.22,22.9,21.3,20,30.55,44.67,28.3,75.4-1.51,21.07-9.48,41.74-25.08,65.05-20.32,30.35-47.16,56.87-72.94,81.46-12.52,12-25.8,23.88-38.64,35.36-14.93,13.36-30.25,27.05-45,41.5-5.22-5.24-10.59-10.54-16.16-15.7-10.76-10-21.73-20-32.35-29.62C138.7,283.58,121.38,267.78,104.7,252c-24.25-23-43.07-44.74-57.56-66.61C36.31,169.08,29.64,155,26.15,141,25,136.27,24,131.32,23,126.08c-.33-1.7-.66-3.43-1-5.19V104.76c.13-.53.24-1.05.35-1.58l.17-.87.1-.88c2.32-20.26,9.8-36.88,22.86-50.82,18-19.22,39.53-28.56,65.7-28.56,3.82,0,7.79.2,11.77.6,20.14,2.07,38.32,10.23,54.06,24.26a81.31,81.31,0,0,1,6.19,6.55c1.24,1.41,2.53,2.87,3.92,4.36l15,16.15,16.12-15c2-1.87,3.83-3.63,5.6-5.34,3.37-3.25,6.28-6.05,9.16-8.4C252.19,29.59,272.72,22,295.79,22m0-22c-28.36,0-54,9.67-76.67,28.14-5.31,4.33-10.09,9.31-15.88,14.71-3.81-4.1-7.37-8.6-11.59-12.36C172.67,13.57,150.34,3.35,125.2.77a139.35,139.35,0,0,0-14-.72C79.76.05,52.11,11.4,29.44,35.56,12.76,53.35,3.53,74.73.76,98.93A16.24,16.24,0,0,1,0,101.57v21.51c1.58,7.76,2.89,15.59,4.81,23.26,4.66,18.66,13.47,35.36,24,51.23C46.06,223.62,67,246.63,89.57,268c27.43,25.92,55.58,51,83.29,76.62,9.54,8.84,18.57,18.23,27.79,27.42a26.62,26.62,0,0,1,2.57,3.56,19.15,19.15,0,0,0,2-1.44c30.78-32.23,65.49-60.16,97.63-91,27.61-26.34,54.64-53.21,76-85.11,15.41-23,26.74-47.72,28.74-75.72,2.66-36.25-8.33-67.77-35.17-93C354.4,12.43,332.7,3,308.27.61,304.05.2,299.9,0,295.79,0Z"/></g></g></g></g></svg>