<svg xmlns="http://www.w3.org/2000/svg" viewBox="0 0 407.98 375.6">
    <title>favourites</title>
    <g id="Layer_2" data-name="Layer 2">
        <g id="Layer_1-2" data-name="Layer 1">
            <path d="M0,123.08V101.57a16,16,0,0,0,.76-2.64c2.77-24.2,12-45.58,28.68-63.37C55.42,7.87,87.95-3,125.2.77c25.14,2.58,47.47,12.8,66.45,29.72,4.22,3.76,7.78,8.26,11.59,12.36,5.79-5.4,10.57-10.38,15.88-14.71C245.09,7,274.89-2.61,308.27.61,332.7,3,354.4,12.43,372.42,29.37c26.84,25.23,37.83,56.75,35.17,93-2,28-13.33,52.7-28.74,75.72-21.36,31.9-48.39,58.77-76,85.11C270.71,314,236,341.93,205.22,374.16a18.62,18.62,0,0,1-2,1.44,26.71,26.71,0,0,0-2.57-3.56c-9.22-9.19-18.25-18.58-27.79-27.42C145.15,319,117,293.92,89.57,268,67,246.63,46.06,223.62,28.8,197.57,18.28,181.7,9.47,165,4.81,146.34,2.89,138.67,1.58,130.84,0,123.08Z" />
        </g>
    </g>
</svg>