<svg
	xmlns="http://www.w3.org/2000/svg" viewBox="0 0 199.33 185.89">
	<title>profilo</title>
	<g id="Layer_2" data-name="Layer 2">
		<g id="Layer_1-2" data-name="Layer 1">
			<path d="M169.3,124.74a113.14,113.14,0,0,0-32.6-18.09,59.78,59.78,0,1,0-74.06,0A113.14,113.14,0,0,0,30,124.74c-18.81,15-30,34.09-30,51.15a10,10,0,0,0,20,0c0-22,35.69-55.67,79.67-55.67,37.7,0,69.31,24.75,77.56,45.67H44.94a10,10,0,0,0,0,20H189.33a10,10,0,0,0,10-10C199.33,158.83,188.11,139.71,169.3,124.74ZM99.67,20A39.78,39.78,0,1,1,59.89,59.78,39.82,39.82,0,0,1,99.67,20Z"/>
		</g>
	</g>
</svg>  