<svg
	xmlns="http://www.w3.org/2000/svg" viewBox="0 0 232.67 196.51">
	<title>scopri</title>
	<g id="Layer_2" data-name="Layer 2">
		<g id="Layer_1-2" data-name="Layer 1">
			<path d="M204.2,0H64.87A28.47,28.47,0,0,0,36.4,28.57v3.86H28.47A28.5,28.5,0,0,0,0,60.9V168a28.5,28.5,0,0,0,28.47,28.47H204.2A28.5,28.5,0,0,0,232.67,168V28.47A28.5,28.5,0,0,0,204.2,0ZM34.46,174A8.47,8.47,0,0,1,20,168V60.9a8.48,8.48,0,0,1,8.47-8.47h8L36.93,168A8.41,8.41,0,0,1,34.46,174Zm178.2-6a8.48,8.48,0,0,1-8.47,8.47H55.66a28.57,28.57,0,0,0,1.27-8.57L56.4,28.5A8.47,8.47,0,0,1,64.87,20H204.2a8.48,8.48,0,0,1,8.47,8.47Z"/>
			<path d="M86.19,105.27h30.11A18.21,18.21,0,0,0,134.5,87.08V50.19A18.21,18.21,0,0,0,116.31,32H86.19A18.21,18.21,0,0,0,68,50.19V87.08A18.21,18.21,0,0,0,86.19,105.27ZM88,52h26.5V85.27H88Z"/>
			<path d="M193.33,34.44H155.67a10,10,0,0,0,0,20h37.67a10,10,0,0,0,0-20Z"/>
			<path d="M193.33,83.33H155.67a10,10,0,1,0,0,20h37.67a10,10,0,1,0,0-20Z"/>
			<path d="M193.33,129.6H78a10,10,0,0,0,0,20H193.33a10,10,0,0,0,0-20Z"/>
		</g>
	</g>
</svg>